<?xml version="1.0" standalone="no"?>
<!DOCTYPE svg PUBLIC "-//W3C//DTD SVG 20010904//EN"
 "http://www.w3.org/TR/2001/REC-SVG-20010904/DTD/svg10.dtd">
<svg version="1.0" xmlns="http://www.w3.org/2000/svg"
 width="512.000000pt" height="512.000000pt" viewBox="0 0 512.000000 512.000000"
 preserveAspectRatio="xMidYMid meet">

<g transform="translate(0.000000,512.000000) scale(0.100000,-0.100000)"
fill="#000000" stroke="none">
<path d="M1238 4895 c-39 -22 -48 -67 -48 -252 l0 -162 -502 -3 c-494 -3 -504
-3 -543 -25 -47 -25 -95 -74 -121 -123 -18 -34 -19 -88 -19 -1385 0 -1315 0
-1351 19 -1389 23 -46 74 -99 119 -123 30 -17 97 -18 1010 -21 l977 -2 0 -255
0 -254 -401 -3 -401 -3 -24 -28 c-24 -28 -24 -29 -24 -258 l0 -229 -85 0 -85
0 0 -85 0 -85 1450 0 1450 0 0 85 0 85 -85 0 -85 0 0 229 c0 229 0 230 -24
258 l-24 28 -401 3 -401 3 0 254 0 255 958 0 c1068 0 1015 -3 1090 69 21 20
47 55 57 76 20 39 20 69 20 1390 l0 1350 -22 41 c-31 58 -104 119 -158 133
-29 7 -204 11 -524 11 l-481 0 0 163 c0 188 -9 231 -50 252 -43 22 -2601 22
-2642 0z m2512 -572 l0 -418 -465 -554 c-255 -304 -467 -561 -470 -571 -16
-50 -85 -519 -79 -542 7 -35 39 -58 79 -58 41 0 516 166 536 188 9 9 98 116
199 237 101 121 187 224 192 230 4 5 8 -219 8 -498 l0 -507 -1190 0 -1190 0 0
1455 0 1455 1190 0 1190 0 0 -417z m-2560 -1123 l0 -1110 -510 0 -510 0 0
1081 0 1081 29 29 29 29 481 0 481 0 0 -1110z m3731 1081 l29 -29 0 -1081 0
-1081 -510 0 -510 0 0 484 0 484 210 249 c250 296 275 338 275 458 -1 66 -5
90 -28 140 -36 77 -110 147 -185 176 -69 26 -179 29 -235 6 l-37 -16 0 120 0
119 481 0 481 0 29 -29z m-748 -378 c42 -27 77 -89 77 -138 0 -37 -30 -100
-68 -142 l-28 -33 -127 106 c-70 58 -127 110 -127 115 0 13 70 88 94 101 59
32 121 29 179 -9z m-136 -446 c-4 -15 -752 -906 -761 -906 -10 -1 -254 201
-255 212 -1 4 171 212 380 462 l382 454 128 -107 c70 -59 127 -111 126 -115z
m-977 -955 l54 -49 -94 -31 c-51 -18 -94 -31 -95 -29 -1 1 5 46 13 99 l15 97
26 -19 c14 -10 51 -41 81 -68z m-1870 -659 c0 -111 13 -151 55 -169 51 -21
2579 -21 2630 0 42 18 55 58 55 169 l0 77 510 0 510 0 0 -136 c0 -136 -6 -166
-39 -191 -23 -18 -4679 -18 -4702 0 -33 25 -39 55 -39 191 l0 136 510 0 510 0
0 -77z m1628 -690 l2 -253 -260 0 -260 0 0 248 c0 137 3 252 7 256 4 3 119 5
257 4 l251 -3 3 -252z m850 -600 l2 -173 -1110 0 -1110 0 0 168 c0 93 3 172 7
175 3 4 502 6 1107 5 l1101 -3 3 -172z"/>
<path d="M1540 4480 l0 -90 168 2 167 3 0 85 0 85 -167 3 -168 2 0 -90z"/>
<path d="M2050 4480 l0 -90 723 2 722 3 0 85 0 85 -722 3 -723 2 0 -90z"/>
<path d="M1540 4055 l0 -85 980 0 980 0 0 85 0 85 -980 0 -980 0 0 -85z"/>
<path d="M1540 3625 l0 -85 85 0 85 0 0 85 0 85 -85 0 -85 0 0 -85z"/>
<path d="M1880 3625 l0 -85 85 0 85 0 0 85 0 85 -85 0 -85 0 0 -85z"/>
<path d="M2220 3625 l0 -85 470 0 470 0 0 85 0 85 -470 0 -470 0 0 -85z"/>
<path d="M1540 3200 l0 -90 253 2 252 3 0 85 0 85 -252 3 -253 2 0 -90z"/>
<path d="M2220 3200 l0 -90 298 2 297 3 0 85 0 85 -297 3 -298 2 0 -90z"/>
<path d="M1540 2515 l0 -85 465 0 465 0 0 85 0 85 -465 0 -465 0 0 -85z"/>
<path d="M1540 2095 l0 -85 555 0 556 0 -3 83 -3 82 -552 3 -553 2 0 -85z"/>
<path d="M4610 1745 l0 -85 85 0 85 0 0 85 0 85 -85 0 -85 0 0 -85z"/>
</g>
</svg>
