<?xml version="1.0" standalone="no"?>
<!DOCTYPE svg PUBLIC "-//W3C//DTD SVG 20010904//EN"
 "http://www.w3.org/TR/2001/REC-SVG-20010904/DTD/svg10.dtd">
<svg version="1.0" xmlns="http://www.w3.org/2000/svg"
 width="512.000000pt" height="512.000000pt" viewBox="0 0 512.000000 512.000000"
 preserveAspectRatio="xMidYMid meet">

<g transform="translate(0.000000,512.000000) scale(0.100000,-0.100000)"
fill="#000000" stroke="none">
<path d="M1380 5031 c-74 -23 -127 -69 -159 -141 -20 -43 -21 -64 -21 -507 l0
-461 -247 -4 -248 -3 -67 -32 c-93 -44 -151 -100 -196 -191 l-37 -76 -5 -292
-5 -292 -62 -46 c-152 -112 -253 -313 -253 -506 0 -193 101 -394 253 -506 l62
-46 5 -372 5 -372 37 -76 c45 -91 103 -147 196 -191 l67 -32 528 -3 527 -3 0
-158 0 -158 -89 -5 c-160 -9 -279 -86 -347 -224 -31 -63 -37 -85 -42 -163 l-5
-91 1283 0 1283 0 -5 91 c-5 78 -11 100 -42 163 -68 138 -187 215 -347 224
l-89 5 0 158 0 158 528 3 527 3 67 32 c93 44 151 100 196 191 l37 76 3 328 3
328 160 0 159 0 0 720 0 720 -159 0 -159 0 -4 168 c-3 163 -4 168 -35 234 -44
93 -100 151 -191 196 l-76 37 -248 3 -248 4 0 461 c0 443 -1 464 -21 507 -25
55 -62 95 -114 123 l-40 22 -1170 2 c-643 1 -1181 -2 -1195 -6z m2333 -162
c14 -6 30 -22 36 -36 8 -16 11 -179 11 -524 l0 -500 -25 -24 -24 -25 -425 0
-426 0 -237 -156 c-130 -86 -243 -158 -249 -161 -7 -2 -22 0 -33 7 -20 10 -21
19 -21 160 l0 150 -455 0 -456 0 -24 25 -25 24 0 508 c1 533 0 525 45 551 28
16 2273 17 2308 1z m-2488 -1130 c11 -35 77 -101 120 -120 36 -17 74 -19 428
-19 l387 0 0 -79 c0 -67 4 -87 28 -132 46 -89 157 -132 246 -95 18 7 131 79
252 160 l219 146 415 0 c380 0 418 2 455 19 43 19 109 85 120 120 6 21 11 21
232 21 148 0 240 -4 267 -12 55 -16 138 -99 154 -154 7 -24 12 -100 12 -178
l0 -136 -320 0 -320 0 0 -360 0 -360 -240 0 -240 0 0 200 0 200 -240 0 -240 0
0 -480 0 -480 -80 0 -80 0 0 560 0 560 -240 0 -240 0 0 -560 0 -560 -80 0 -80
0 0 400 0 400 -240 0 -240 0 0 -120 0 -120 -163 0 -163 0 -13 63 c-47 232
-250 432 -492 483 -72 16 -212 15 -266 -2 l-23 -6 0 227 c0 150 4 242 12 269
15 51 99 137 148 153 21 7 129 11 267 12 227 1 232 1 238 -20z m3655 -1179 l0
-560 -400 0 -400 0 0 560 0 560 400 0 400 0 0 -560z m-4045 385 c237 -62 393
-291 358 -529 -28 -194 -168 -351 -358 -401 -250 -65 -513 94 -580 350 -89
342 238 669 580 580z m1805 -465 l0 -480 -80 0 -80 0 0 480 0 480 80 0 80 0 0
-480z m640 -80 l0 -400 -80 0 -80 0 0 400 0 400 80 0 80 0 0 -400z m-1280 -80
l0 -320 -80 0 -80 0 0 320 0 320 80 0 80 0 0 -320z m-320 -120 l0 -200 -80 0
-80 0 0 -80 0 -80 1040 0 1040 0 0 80 0 80 -80 0 -80 0 0 200 0 200 240 0 240
0 0 -280 0 -280 320 0 320 0 0 -80 0 -80 -2000 0 -2000 0 0 91 c0 90 0 91 23
85 12 -4 60 -10 107 -13 301 -19 592 202 651 495 l13 62 163 0 163 0 0 -200z
m2880 -816 c0 -78 -5 -154 -12 -178 -16 -55 -99 -138 -154 -154 -60 -18 -3608
-18 -3668 0 -55 16 -138 99 -154 154 -7 24 -12 100 -12 178 l0 136 2000 0
2000 0 0 -136z m-1360 -664 l0 -160 -640 0 -640 0 0 160 0 160 640 0 640 0 0
-160z m314 -332 c45 -13 146 -105 146 -132 0 -14 -109 -16 -1100 -16 -991 0
-1100 2 -1100 16 0 24 101 119 140 131 53 16 1858 17 1914 1z"/>
<path d="M1700 4711 c-76 -24 -127 -70 -159 -141 -52 -115 4 -257 123 -311 32
-14 66 -19 153 -19 122 0 155 -9 172 -47 17 -37 13 -62 -14 -88 -23 -24 -31
-25 -135 -25 -104 0 -112 1 -135 25 -14 13 -25 31 -25 40 0 12 -15 15 -80 15
-91 0 -92 -1 -64 -82 18 -55 72 -114 128 -139 33 -15 66 -19 176 -19 154 0
191 11 253 75 110 114 77 302 -68 378 -33 17 -64 22 -173 26 -125 6 -135 8
-153 30 -33 41 -21 93 28 119 28 15 194 16 227 1 13 -7 30 -25 37 -40 11 -28
13 -29 90 -29 75 0 79 1 79 23 -1 32 -37 107 -68 140 -56 59 -95 71 -237 74
-71 1 -141 -1 -155 -6z"/>
<path d="M2500 4711 c-74 -23 -127 -69 -159 -141 -18 -40 -21 -65 -21 -246 0
-228 8 -268 67 -329 63 -65 98 -75 266 -75 l147 0 0 80 0 80 -135 0 c-131 0
-137 1 -160 25 -21 20 -25 34 -25 80 l0 55 160 0 160 0 0 80 0 80 -160 0 -160
0 0 53 c1 93 26 107 194 107 l126 0 0 80 0 80 -137 -1 c-76 0 -149 -4 -163 -8z"/>
<path d="M3140 4711 c-76 -24 -127 -70 -159 -141 -18 -40 -21 -65 -21 -246 0
-228 8 -268 67 -329 62 -64 99 -75 253 -75 154 0 191 11 253 75 59 61 67 101
67 329 0 220 -8 256 -68 319 -56 59 -95 71 -237 74 -71 1 -141 -1 -155 -6z
m253 -162 c41 -19 47 -48 47 -240 0 -178 0 -180 -25 -204 -23 -24 -31 -25
-135 -25 -104 0 -112 1 -135 25 -25 24 -25 26 -25 212 1 195 3 207 45 231 26
15 197 15 228 1z"/>
<path d="M4240 2880 l0 -80 240 0 240 0 0 80 0 80 -240 0 -240 0 0 -80z"/>
<path d="M4240 2560 l0 -80 240 0 240 0 0 80 0 80 -240 0 -240 0 0 -80z"/>
<path d="M4240 2240 l0 -80 240 0 240 0 0 80 0 80 -240 0 -240 0 0 -80z"/>
<path d="M645 2791 c-92 -24 -173 -90 -215 -176 -19 -41 -24 -66 -24 -135 -1
-78 2 -90 33 -148 38 -70 70 -100 145 -140 43 -22 64 -26 136 -26 72 0 93 4
136 26 75 40 107 70 145 140 31 58 34 70 33 148 0 72 -4 93 -26 136 -39 75
-70 107 -137 143 -65 34 -164 49 -226 32z m138 -165 c103 -43 128 -177 48
-257 -65 -65 -157 -65 -222 0 -124 123 13 325 174 257z"/>
<path d="M2185 1335 c-16 -15 -25 -36 -25 -55 0 -19 9 -40 25 -55 15 -16 36
-25 55 -25 19 0 40 9 55 25 16 15 25 36 25 55 0 19 -9 40 -25 55 -15 16 -36
25 -55 25 -19 0 -40 -9 -55 -25z"/>
<path d="M2505 1335 c-16 -15 -25 -36 -25 -55 0 -19 9 -40 25 -55 49 -50 135
-15 135 55 0 41 -39 80 -80 80 -19 0 -40 -9 -55 -25z"/>
<path d="M2825 1335 c-50 -49 -15 -135 55 -135 41 0 80 39 80 80 0 41 -39 80
-80 80 -19 0 -40 -9 -55 -25z"/>
</g>
</svg>
