<?xml version="1.0" standalone="no"?>
<!DOCTYPE svg PUBLIC "-//W3C//DTD SVG 20010904//EN"
 "http://www.w3.org/TR/2001/REC-SVG-20010904/DTD/svg10.dtd">
<svg version="1.0" xmlns="http://www.w3.org/2000/svg"
 width="512.000000pt" height="512.000000pt" viewBox="0 0 512.000000 512.000000"
 preserveAspectRatio="xMidYMid meet">

<g transform="translate(0.000000,512.000000) scale(0.100000,-0.100000)"
fill="#000000" stroke="none">
<path d="M78 5099 c-23 -12 -46 -35 -58 -59 -20 -39 -20 -56 -20 -1870 0
-1815 0 -1831 20 -1870 13 -26 34 -47 60 -60 39 -20 53 -20 2480 -20 2427 0
2441 0 2480 20 26 13 47 34 60 60 20 39 20 55 20 1870 0 1815 0 1831 -20 1870
-13 26 -34 47 -60 60 -39 20 -53 20 -2482 20 -2413 -1 -2443 -1 -2480 -21z
m4742 -1929 l0 -1650 -2260 0 -2260 0 0 1650 0 1650 2260 0 2260 0 0 -1650z"/>
<path d="M688 4499 c-43 -22 -78 -81 -78 -129 0 -50 35 -107 80 -130 35 -18
59 -20 220 -20 210 0 244 10 280 80 25 50 25 90 0 140 -36 71 -69 80 -282 80
-162 -1 -187 -3 -220 -21z"/>
<path d="M3988 4499 c-43 -22 -78 -81 -78 -129 0 -50 35 -107 80 -130 35 -18
59 -20 220 -20 161 0 185 2 220 20 45 23 80 80 80 130 0 50 -35 107 -80 130
-35 18 -58 20 -222 20 -162 -1 -187 -3 -220 -21z"/>
<path d="M688 3899 c-43 -22 -78 -81 -78 -129 0 -50 35 -107 80 -130 35 -18
59 -20 220 -20 210 0 244 10 280 80 25 50 25 90 0 140 -36 71 -69 80 -282 80
-162 -1 -187 -3 -220 -21z"/>
<path d="M2038 3899 c-23 -12 -46 -35 -58 -59 -19 -38 -20 -58 -20 -670 0
-612 1 -632 20 -670 35 -69 125 -99 193 -64 17 9 238 155 492 324 490 327 495
331 495 410 0 79 -5 83 -495 410 -254 169 -475 315 -492 324 -42 21 -89 20
-135 -5z m692 -729 c0 -4 -106 -77 -235 -163 l-235 -157 0 320 0 320 235 -157
c129 -86 235 -159 235 -163z"/>
<path d="M3988 3899 c-43 -22 -78 -81 -78 -129 0 -50 35 -107 80 -130 35 -18
59 -20 220 -20 161 0 185 2 220 20 45 23 80 80 80 130 0 50 -35 107 -80 130
-35 18 -58 20 -222 20 -162 -1 -187 -3 -220 -21z"/>
<path d="M688 3299 c-43 -22 -78 -81 -78 -129 0 -50 35 -107 80 -130 35 -18
59 -20 220 -20 210 0 244 10 280 80 25 50 25 90 0 140 -36 71 -69 80 -282 80
-162 -1 -187 -3 -220 -21z"/>
<path d="M3988 3299 c-43 -22 -78 -81 -78 -129 0 -50 35 -107 80 -130 35 -18
59 -20 220 -20 161 0 185 2 220 20 45 23 80 80 80 130 0 50 -35 107 -80 130
-35 18 -58 20 -222 20 -162 -1 -187 -3 -220 -21z"/>
<path d="M688 2699 c-43 -22 -78 -81 -78 -129 0 -50 35 -107 80 -130 35 -18
59 -20 220 -20 210 0 244 10 280 80 25 50 25 90 0 140 -36 71 -69 80 -282 80
-162 -1 -187 -3 -220 -21z"/>
<path d="M3988 2699 c-43 -22 -78 -81 -78 -129 0 -50 35 -107 80 -130 35 -18
59 -20 220 -20 161 0 185 2 220 20 45 23 80 80 80 130 0 50 -35 107 -80 130
-35 18 -58 20 -222 20 -162 -1 -187 -3 -220 -21z"/>
<path d="M688 2099 c-43 -22 -78 -81 -78 -129 0 -50 35 -107 80 -130 35 -18
59 -20 220 -20 210 0 244 10 280 80 25 50 25 90 0 140 -36 71 -69 80 -282 80
-162 -1 -187 -3 -220 -21z"/>
<path d="M3988 2099 c-43 -22 -78 -81 -78 -129 0 -50 35 -107 80 -130 35 -18
59 -20 220 -20 161 0 185 2 220 20 45 23 80 80 80 130 0 50 -35 107 -80 130
-35 18 -58 20 -222 20 -162 -1 -187 -3 -220 -21z"/>
<path d="M1249 885 c-120 -33 -244 -132 -290 -232 l-24 -53 -408 0 c-389 0
-410 -1 -447 -20 -45 -23 -80 -80 -80 -130 0 -50 35 -107 80 -130 37 -19 58
-20 447 -20 l408 0 24 -52 c30 -65 128 -164 194 -197 137 -66 276 -67 412 -1
70 34 148 112 186 185 l34 65 1608 0 c1592 0 1608 0 1647 20 45 23 80 80 80
130 0 50 -35 107 -80 130 -39 20 -55 20 -1647 20 l-1608 0 -25 53 c-30 65
-129 166 -193 196 -103 50 -221 63 -318 36z m181 -305 c45 -23 80 -80 80 -131
0 -74 -76 -149 -151 -149 -46 0 -108 39 -130 82 -37 72 -14 151 57 194 48 29
92 30 144 4z"/>
</g>
</svg>
